<mxfile host="app.diagrams.net" modified="2023-10-30T05:44:41.238Z" agent="Mozilla/5.0 (Windows NT 10.0; Win64; x64) AppleWebKit/537.36 (KHTML, like Gecko) Chrome/118.0.0.0 Safari/537.36" etag="tikY6NkVN_SeUDSBJJeK" version="22.0.8" type="github">
  <diagram name="Page-1" id="7iIc6n4CkcxEk5rgf-5P">
    <mxGraphModel dx="1290" dy="581" grid="1" gridSize="10" guides="1" tooltips="1" connect="1" arrows="1" fold="1" page="1" pageScale="1" pageWidth="827" pageHeight="1169" math="0" shadow="0">
      <root>
        <mxCell id="0" />
        <mxCell id="1" parent="0" />
        <mxCell id="m4KdiOQTEakfrc3pddHP-1" value="Region" style="points=[[0,0],[0.25,0],[0.5,0],[0.75,0],[1,0],[1,0.25],[1,0.5],[1,0.75],[1,1],[0.75,1],[0.5,1],[0.25,1],[0,1],[0,0.75],[0,0.5],[0,0.25]];outlineConnect=0;gradientColor=none;html=1;whiteSpace=wrap;fontSize=12;fontStyle=0;container=1;pointerEvents=0;collapsible=0;recursiveResize=0;shape=mxgraph.aws4.group;grIcon=mxgraph.aws4.group_region;strokeColor=#147EBA;fillColor=none;verticalAlign=top;align=left;spacingLeft=30;fontColor=#147EBA;dashed=1;" vertex="1" parent="1">
          <mxGeometry x="100" y="60" width="680" height="500" as="geometry" />
        </mxCell>
        <mxCell id="m4KdiOQTEakfrc3pddHP-2" value="VPC" style="points=[[0,0],[0.25,0],[0.5,0],[0.75,0],[1,0],[1,0.25],[1,0.5],[1,0.75],[1,1],[0.75,1],[0.5,1],[0.25,1],[0,1],[0,0.75],[0,0.5],[0,0.25]];outlineConnect=0;gradientColor=none;html=1;whiteSpace=wrap;fontSize=12;fontStyle=0;container=1;pointerEvents=0;collapsible=0;recursiveResize=0;shape=mxgraph.aws4.group;grIcon=mxgraph.aws4.group_vpc;strokeColor=#248814;fillColor=none;verticalAlign=top;align=left;spacingLeft=30;fontColor=#AAB7B8;dashed=0;" vertex="1" parent="1">
          <mxGeometry x="130" y="100" width="620" height="420" as="geometry" />
        </mxCell>
        <mxCell id="m4KdiOQTEakfrc3pddHP-5" value="Private subnet" style="points=[[0,0],[0.25,0],[0.5,0],[0.75,0],[1,0],[1,0.25],[1,0.5],[1,0.75],[1,1],[0.75,1],[0.5,1],[0.25,1],[0,1],[0,0.75],[0,0.5],[0,0.25]];outlineConnect=0;gradientColor=none;html=1;whiteSpace=wrap;fontSize=12;fontStyle=0;container=1;pointerEvents=0;collapsible=0;recursiveResize=0;shape=mxgraph.aws4.group;grIcon=mxgraph.aws4.group_security_group;grStroke=0;strokeColor=#147EBA;fillColor=#E6F2F8;verticalAlign=top;align=left;spacingLeft=30;fontColor=#147EBA;dashed=0;" vertex="1" parent="m4KdiOQTEakfrc3pddHP-2">
          <mxGeometry x="20" y="301" width="580" height="110" as="geometry" />
        </mxCell>
        <mxCell id="m4KdiOQTEakfrc3pddHP-17" style="edgeStyle=orthogonalEdgeStyle;rounded=0;orthogonalLoop=1;jettySize=auto;html=1;" edge="1" parent="m4KdiOQTEakfrc3pddHP-5" source="m4KdiOQTEakfrc3pddHP-13" target="m4KdiOQTEakfrc3pddHP-12">
          <mxGeometry relative="1" as="geometry" />
        </mxCell>
        <mxCell id="m4KdiOQTEakfrc3pddHP-13" value="" style="sketch=0;outlineConnect=0;fontColor=#232F3E;gradientColor=none;fillColor=#C925D1;strokeColor=none;dashed=0;verticalLabelPosition=bottom;verticalAlign=top;align=center;html=1;fontSize=12;fontStyle=0;aspect=fixed;pointerEvents=1;shape=mxgraph.aws4.rds_instance;" vertex="1" parent="m4KdiOQTEakfrc3pddHP-5">
          <mxGeometry x="112" y="28" width="78" height="78" as="geometry" />
        </mxCell>
        <mxCell id="m4KdiOQTEakfrc3pddHP-12" value="" style="sketch=0;outlineConnect=0;fontColor=#232F3E;gradientColor=none;fillColor=#C925D1;strokeColor=none;dashed=0;verticalLabelPosition=bottom;verticalAlign=top;align=center;html=1;fontSize=12;fontStyle=0;aspect=fixed;pointerEvents=1;shape=mxgraph.aws4.rds_instance;" vertex="1" parent="m4KdiOQTEakfrc3pddHP-5">
          <mxGeometry x="375" y="26" width="78" height="78" as="geometry" />
        </mxCell>
        <mxCell id="m4KdiOQTEakfrc3pddHP-20" value="Data base tier" style="strokeWidth=1;shadow=0;dashed=0;align=center;html=1;shape=mxgraph.mockup.text.textBox;fontColor=#666666;align=left;fontSize=17;spacingLeft=4;spacingTop=-3;whiteSpace=wrap;strokeColor=#666666;mainText=" vertex="1" parent="m4KdiOQTEakfrc3pddHP-5">
          <mxGeometry x="210" y="19" width="150" height="30" as="geometry" />
        </mxCell>
        <mxCell id="m4KdiOQTEakfrc3pddHP-24" value="RDS&lt;br&gt;MY SQL" style="strokeWidth=1;shadow=0;dashed=0;align=center;html=1;shape=mxgraph.mockup.text.textBox;fontColor=#666666;align=left;fontSize=17;spacingLeft=4;spacingTop=-3;whiteSpace=wrap;strokeColor=#666666;mainText=" vertex="1" parent="m4KdiOQTEakfrc3pddHP-5">
          <mxGeometry x="465" y="50" width="85" height="39" as="geometry" />
        </mxCell>
        <mxCell id="m4KdiOQTEakfrc3pddHP-26" value="RDS&lt;br&gt;MY SQL" style="strokeWidth=1;shadow=0;dashed=0;align=center;html=1;shape=mxgraph.mockup.text.textBox;fontColor=#666666;align=left;fontSize=17;spacingLeft=4;spacingTop=-3;whiteSpace=wrap;strokeColor=#666666;mainText=" vertex="1" parent="m4KdiOQTEakfrc3pddHP-5">
          <mxGeometry x="20" y="45.5" width="85" height="39" as="geometry" />
        </mxCell>
        <mxCell id="m4KdiOQTEakfrc3pddHP-4" value="Private subnet" style="points=[[0,0],[0.25,0],[0.5,0],[0.75,0],[1,0],[1,0.25],[1,0.5],[1,0.75],[1,1],[0.75,1],[0.5,1],[0.25,1],[0,1],[0,0.75],[0,0.5],[0,0.25]];outlineConnect=0;gradientColor=none;html=1;whiteSpace=wrap;fontSize=12;fontStyle=0;container=1;pointerEvents=0;collapsible=0;recursiveResize=0;shape=mxgraph.aws4.group;grIcon=mxgraph.aws4.group_security_group;grStroke=0;strokeColor=#147EBA;fillColor=#E6F2F8;verticalAlign=top;align=left;spacingLeft=30;fontColor=#147EBA;dashed=0;" vertex="1" parent="m4KdiOQTEakfrc3pddHP-2">
          <mxGeometry x="20" y="160" width="580" height="130" as="geometry" />
        </mxCell>
        <mxCell id="m4KdiOQTEakfrc3pddHP-8" value="" style="outlineConnect=0;dashed=0;verticalLabelPosition=bottom;verticalAlign=top;align=center;html=1;shape=mxgraph.aws3.ec2;fillColor=#F58534;gradientColor=none;" vertex="1" parent="m4KdiOQTEakfrc3pddHP-4">
          <mxGeometry x="40" y="30" width="76.5" height="93" as="geometry" />
        </mxCell>
        <mxCell id="m4KdiOQTEakfrc3pddHP-10" value="" style="outlineConnect=0;dashed=0;verticalLabelPosition=bottom;verticalAlign=top;align=center;html=1;shape=mxgraph.aws3.ec2;fillColor=#F58534;gradientColor=none;" vertex="1" parent="m4KdiOQTEakfrc3pddHP-4">
          <mxGeometry x="460" y="30" width="76.5" height="93" as="geometry" />
        </mxCell>
        <mxCell id="m4KdiOQTEakfrc3pddHP-19" value="APP tier" style="strokeWidth=1;shadow=0;dashed=0;align=center;html=1;shape=mxgraph.mockup.text.textBox;fontColor=#666666;align=left;fontSize=17;spacingLeft=4;spacingTop=-3;whiteSpace=wrap;strokeColor=#666666;mainText=" vertex="1" parent="m4KdiOQTEakfrc3pddHP-4">
          <mxGeometry x="160" y="30" width="150" height="30" as="geometry" />
        </mxCell>
        <mxCell id="m4KdiOQTEakfrc3pddHP-23" value="EC2" style="strokeWidth=1;shadow=0;dashed=0;align=center;html=1;shape=mxgraph.mockup.text.textBox;fontColor=#666666;align=left;fontSize=17;spacingLeft=4;spacingTop=-3;whiteSpace=wrap;strokeColor=#666666;mainText=" vertex="1" parent="m4KdiOQTEakfrc3pddHP-4">
          <mxGeometry x="540" y="61.5" width="40" height="30" as="geometry" />
        </mxCell>
        <mxCell id="m4KdiOQTEakfrc3pddHP-22" value="EC2" style="strokeWidth=1;shadow=0;dashed=0;align=center;html=1;shape=mxgraph.mockup.text.textBox;fontColor=#666666;align=left;fontSize=17;spacingLeft=4;spacingTop=-3;whiteSpace=wrap;strokeColor=#666666;mainText=" vertex="1" parent="m4KdiOQTEakfrc3pddHP-4">
          <mxGeometry y="70" width="40" height="30" as="geometry" />
        </mxCell>
        <mxCell id="m4KdiOQTEakfrc3pddHP-16" style="edgeStyle=orthogonalEdgeStyle;rounded=0;orthogonalLoop=1;jettySize=auto;html=1;exitX=0;exitY=0.79;exitDx=0;exitDy=0;exitPerimeter=0;" edge="1" parent="m4KdiOQTEakfrc3pddHP-2" source="m4KdiOQTEakfrc3pddHP-10" target="m4KdiOQTEakfrc3pddHP-13">
          <mxGeometry relative="1" as="geometry" />
        </mxCell>
        <mxCell id="m4KdiOQTEakfrc3pddHP-3" value="Public subnet" style="points=[[0,0],[0.25,0],[0.5,0],[0.75,0],[1,0],[1,0.25],[1,0.5],[1,0.75],[1,1],[0.75,1],[0.5,1],[0.25,1],[0,1],[0,0.75],[0,0.5],[0,0.25]];outlineConnect=0;gradientColor=none;html=1;whiteSpace=wrap;fontSize=12;fontStyle=0;container=1;pointerEvents=0;collapsible=0;recursiveResize=0;shape=mxgraph.aws4.group;grIcon=mxgraph.aws4.group_security_group;grStroke=0;strokeColor=#248814;fillColor=#E9F3E6;verticalAlign=top;align=left;spacingLeft=30;fontColor=#248814;dashed=0;" vertex="1" parent="1">
          <mxGeometry x="150" y="133" width="580" height="120" as="geometry" />
        </mxCell>
        <mxCell id="m4KdiOQTEakfrc3pddHP-7" value="" style="outlineConnect=0;dashed=0;verticalLabelPosition=bottom;verticalAlign=top;align=center;html=1;shape=mxgraph.aws3.application_load_balancer;fillColor=#F58534;gradientColor=none;" vertex="1" parent="m4KdiOQTEakfrc3pddHP-3">
          <mxGeometry x="229" y="24" width="69" height="72" as="geometry" />
        </mxCell>
        <mxCell id="m4KdiOQTEakfrc3pddHP-18" value="web tier" style="strokeWidth=1;shadow=0;dashed=0;align=center;html=1;shape=mxgraph.mockup.text.textBox;fontColor=#666666;align=left;fontSize=17;spacingLeft=4;spacingTop=-3;whiteSpace=wrap;strokeColor=#666666;mainText=" vertex="1" parent="m4KdiOQTEakfrc3pddHP-3">
          <mxGeometry x="20" y="37" width="150" height="30" as="geometry" />
        </mxCell>
        <mxCell id="m4KdiOQTEakfrc3pddHP-21" value="ALB" style="strokeWidth=1;shadow=0;dashed=0;align=center;html=1;shape=mxgraph.mockup.text.textBox;fontColor=#666666;align=left;fontSize=17;spacingLeft=4;spacingTop=-3;whiteSpace=wrap;strokeColor=#666666;mainText=" vertex="1" parent="m4KdiOQTEakfrc3pddHP-3">
          <mxGeometry x="240" y="90" width="40" height="30" as="geometry" />
        </mxCell>
        <mxCell id="m4KdiOQTEakfrc3pddHP-14" style="edgeStyle=orthogonalEdgeStyle;rounded=0;orthogonalLoop=1;jettySize=auto;html=1;exitX=0.855;exitY=0.855;exitDx=0;exitDy=0;exitPerimeter=0;" edge="1" parent="1" source="m4KdiOQTEakfrc3pddHP-7" target="m4KdiOQTEakfrc3pddHP-10">
          <mxGeometry relative="1" as="geometry" />
        </mxCell>
        <mxCell id="m4KdiOQTEakfrc3pddHP-15" style="edgeStyle=orthogonalEdgeStyle;rounded=0;orthogonalLoop=1;jettySize=auto;html=1;exitX=0.145;exitY=0.855;exitDx=0;exitDy=0;exitPerimeter=0;" edge="1" parent="1" source="m4KdiOQTEakfrc3pddHP-7" target="m4KdiOQTEakfrc3pddHP-8">
          <mxGeometry relative="1" as="geometry" />
        </mxCell>
      </root>
    </mxGraphModel>
  </diagram>
</mxfile>
